<svg xmlns="http://www.w3.org/2000/svg" fill="none" aria-label="Auntie Anne's logo" role="img" viewBox="0 0 209 40">
  <path d="M137.686 15.393a.356.356 0 00-.33-.223h-3.73a.357.357 0 00-.33.223l-6.6 16.414a.355.355 0 00.33.488h2.918c.614 0 1.163-.38 1.381-.951l.724-1.897c1.131.28 2.287.423 3.442.423a14.34 14.34 0 003.444-.425l.724 1.899c.218.574.769.951 1.381.951h2.918a.356.356 0 00.33-.488l-6.6-16.414h-.002zm-4.282 10.502l2.087-5.476 2.087 5.472c-1.375.277-2.795.28-4.174.002v.002zm67.247-2.111c-.671-.196-1.302-.33-1.536-.402-.361-.11-.629-.337-.474-.678.347-.757 2.418-.612 4.603.592a.394.394 0 00.514-.108l1.767-2.562a.347.347 0 00-.118-.5c-2.371-1.346-5.425-1.838-7.6-1.18-1.402.422-2.418 1.24-2.86 2.307-.523 1.253-.531 2.39-.025 3.379.861 1.682 2.82 2.252 4.55 2.754 1.432.416 2.175.524 2.368 1.017.194.492-.242.89-.979.894-.844.004-2.666-.3-4.564-1.813a.398.398 0 00-.528.026l-2.187 2.256a.345.345 0 00.028.51c1.994 1.618 4.242 2.47 6.39 2.47.92 0 1.822-.156 2.679-.477 1.836-.684 3.052-2.01 3.172-3.46.282-3.432-3.148-4.428-5.198-5.025h-.002zm-7.624-7.781h-2.44c-.433 0-.761.429-.688.9l.651 4.255c.057.372.347.643.687.643h1.139c.34 0 .632-.271.687-.643l.651-4.255c.071-.471-.257-.9-.687-.9zm-3.486 9.459c0-3.74-3.121-6.75-6.826-6.75-3.705 0-6.828 3.111-6.828 6.935 0 .078.004.156.006.233v.017c.128 3.71 3.14 6.686 6.822 6.686 3.195 0 4.562-1.399 5.808-3.001.282-.364.209-.782-.165-.858-.373-.075-1.987-.406-1.987-.406-.514-.127-.665-.07-.998.171-.593.43-1.434.672-2.391.672-1.583 0-2.854-.782-3.464-2.18.933.16 2.257.385 3.199.385 2.197 0 4.36-.538 6.459-1.325.176-.065.368-.314.368-.575l-.003-.004zm-9.878-1.254c.596-1.233 1.765-2.072 3.103-2.072 1.338 0 2.507.839 3.103 2.072-2.046.461-4.16.461-6.206 0z" fill="#000F9F"/>
  <path d="M121.126 22.28c2.444-8.747.061-17.339-5.792-20.891-4.035-2.45-9.164-1.323-12.255.802-3.091-2.125-8.218-3.254-12.255-.802-5.854 3.554-8.237 12.144-5.793 20.89 1.467 5.25 4.1 8.896 7.174 11.278l-1.908 3.567c-.694 1.298.245 2.868 1.718 2.868h1.059a3.694 3.694 0 003.256-1.951l.932-1.744c1.963.68 3.95.986 5.817.986s3.854-.306 5.816-.986l.933 1.744a3.691 3.691 0 003.256 1.951h1.059c1.47 0 2.411-1.57 1.717-2.868l-1.907-3.567c3.076-2.382 5.706-6.029 7.173-11.278zm-27.563 8.686c-.057.107-.218.047-.197-.07.238-1.385.742-3.41.742-3.41-5.157-6.126-5.319-14.603-2.275-19.272 4.064-6.23 12.755-.239 14.047 9.059.024.184-.227.255-.3.086-1.961-4.445-4.486-7.58-7.188-8.257-1.721 5.337 1.127 10.172 3.291 13.47.061.093-.051.203-.145.142a11.57 11.57 0 01-2.39-2.142L93.56 30.966h.002zm9.518.562a12.14 12.14 0 01-3.048-.41l3.048-5.699 3.048 5.698c-1.3.343-2.397.41-3.048.41zm8.958-4.034c.245.881.5 2.02.739 3.4.02.12-.141.176-.198.07l-6.239-11.645c2.536-4.277 2.43-8.877.418-12.718 2.791-1.566 5.709-1.225 7.571 1.617 2.938 4.484 2.989 13.077-2.291 19.276z" fill="#FF9E18"/>
  <path d="M11.014 15.393a.357.357 0 00-.33-.223h-3.73a.357.357 0 00-.33.223L.026 31.81a.355.355 0 00.33.488h2.918c.614 0 1.163-.38 1.381-.952l.724-1.896c1.13.28 2.287.422 3.442.422a14.34 14.34 0 003.444-.425l.724 1.9c.218.573.77.95 1.381.95h2.918a.356.356 0 00.33-.487l-6.6-16.415-.004-.002zM6.732 25.895l2.087-5.476 2.087 5.472a10.55 10.55 0 01-4.174.002v.002zm49.924-6.892h-2.787v-3.527a.637.637 0 00-.896-.583l-1.838.81a1.726 1.726 0 00-1.03 1.58v1.72H48.23a.355.355 0 00-.355.355v3.054c0 .196.16.355.355.355h1.875v5.588a3.94 3.94 0 003.94 3.943h2.34a.37.37 0 00.365-.313l.471-2.752a.37.37 0 00-.365-.427h-1.769c-.67 0-1.218-.549-1.218-1.218v-4.82h2.53a.611.611 0 00.612-.613v-2.8a.355.355 0 00-.355-.355v.003zm5.581 1.105h-2.091a.355.355 0 00-.355.356v11.478c0 .196.16.355.355.355h3.052c.196 0 .355-.16.355-.355V21.427c0-.729-.59-1.319-1.318-1.319h.002zm-2.179-2.412c2.477 1.888 5.276-.915 3.39-3.394-2.476-1.888-5.275.915-3.39 3.394zm19.058 7.767c0-3.74-3.122-6.75-6.827-6.75s-6.828 3.111-6.828 6.935c0 .078.004.155.006.233v.017c.129 3.71 3.14 6.686 6.822 6.686 3.195 0 4.562-1.399 5.809-3.001.281-.364.208-.782-.166-.858-.373-.075-1.987-.406-1.987-.406-.514-.127-.665-.07-.997.171-.594.43-1.435.672-2.391.672-1.584 0-2.855-.782-3.465-2.18.933.16 2.257.385 3.2.385 2.197 0 4.36-.539 6.459-1.325.175-.065.367-.314.367-.575l-.002-.004zm-9.879-1.254c.596-1.233 1.765-2.072 3.103-2.072 1.339 0 2.508.839 3.103 2.072-2.046.461-4.16.461-6.206 0zm99.327-5.396c-1.681 0-2.705.939-3.311 2.013 0-.856-.692-1.824-1.546-1.824h-2.334a.355.355 0 00-.355.356v11.517c0 .786.636 1.423 1.422 1.423h2.181c.195 0 .354-.16.354-.356v-7.07c0-1.676 1.129-2.51 2.508-2.51s2.507.934 2.507 2.51v7.07c0 .196.159.356.355.356h3.052c.196 0 .355-.16.355-.356v-7.154c0-3.311-1.826-5.976-5.192-5.976h.004zm-15.267 0c-1.682 0-2.706.939-3.312 2.013 0-.856-.691-1.824-1.546-1.824h-2.334a.355.355 0 00-.355.356v11.517c0 .786.637 1.423 1.422 1.423h2.181c.196 0 .355-.16.355-.356v-7.07c0-1.676 1.128-2.51 2.507-2.51 1.379 0 2.508.934 2.508 2.51v7.07c0 .196.159.356.355.356h3.052c.196 0 .355-.16.355-.356v-7.154c0-3.311-1.826-5.976-5.193-5.976h.005zm-112.11 0c-1.68 0-2.705.939-3.311 2.013 0-.856-.692-1.824-1.546-1.824h-2.334a.355.355 0 00-.355.356v11.517c0 .786.636 1.423 1.422 1.423h2.18c.196 0 .355-.16.355-.356v-7.07c0-1.676 1.129-2.51 2.508-2.51s2.507.934 2.507 2.51v7.07c0 .196.16.356.355.356h3.052c.196 0 .355-.16.355-.356v-7.154c0-3.311-1.826-5.976-5.192-5.976h.004zM23.424 32.506c1.681 0 2.706-.94 3.312-2.014 0 .856.691 1.824 1.546 1.824h2.334c.196 0 .355-.16.355-.356V20.444c0-.786-.637-1.423-1.422-1.423h-2.18a.355.355 0 00-.356.356v7.07c0 1.676-1.128 2.51-2.507 2.51-1.38 0-2.508-.934-2.508-2.51v-7.07a.355.355 0 00-.355-.356h-3.052a.355.355 0 00-.355.356v7.154c0 3.311 1.826 5.976 5.192 5.976h-.004zM208.999 19.8a1.222 1.222 0 11-2.444 0 1.222 1.222 0 012.444 0zm-.102 0c0-.626-.504-1.13-1.122-1.13-.618 0-1.122.504-1.122 1.13 0 .624.504 1.128 1.122 1.128.618 0 1.122-.504 1.122-1.129zm-.865.138l.263.486h-.233l-.24-.447h-.211v.447h-.21v-1.252h.386c.314 0 .473.192.473.402 0 .172-.077.3-.23.362l.002.002zm-.418-.161h.189c.161 0 .249-.082.249-.2 0-.119-.088-.2-.249-.2h-.189v.4zM117.989 38.9h-.383V40h-.215v-1.1h-.383v-.202h.983v.202h-.002zm1.477-.202v1.303h-.214v-.931l-.422.678h-.027l-.422-.678V40h-.214v-1.302h.214l.436.696.437-.696h.214-.002z" fill="#000F9F"/>
</svg>
